<?xml version="1.0" encoding="UTF-8"?>
<svg id="_レイヤー_1" data-name="レイヤー 1" xmlns="http://www.w3.org/2000/svg" viewBox="0 0 497.35 557.51">
  <defs>
    <style>
      .cls-1 {
        fill: #942343;
      }
    </style>
  </defs>
  <g>
    <path class="cls-1" d="m43.97,505.56c.18.42.27.82.27,1.18,0,.79-.3,1.44-.91,1.95-.6.51-1.33.83-2.18.95l-4.9.45c-.73.06-1.38-.12-1.95-.54-.58-.42-.95-1-1.13-1.72-.91-3.02-2.28-5.47-4.12-7.34-1.84-1.87-4.07-2.81-6.66-2.81-1.99,0-3.81.85-5.44,2.54-1.63,1.69-2.93,3.96-3.9,6.8-.97,2.84-1.45,5.95-1.45,9.34,0,5.8,1.03,10.33,3.08,13.6,2.05,3.26,5.05,4.9,8.98,4.9,2.66,0,4.8-1,6.44-2.99,1.63-2,2.84-4.83,3.63-8.52.42-1.75,1.48-2.57,3.17-2.45l5.17.45c.85.06,1.56.36,2.13.91.57.54.86,1.21.86,1.99,0,.24-.06.54-.18.91-1.33,4.53-3.84,8.19-7.52,10.97-3.69,2.78-8.25,4.17-13.69,4.17-7.5,0-13.31-2.16-17.45-6.48-4.14-4.32-6.21-10.14-6.21-17.45,0-4.59.95-8.7,2.86-12.33,1.9-3.63,4.53-6.5,7.89-8.61,3.35-2.11,7.24-3.17,11.65-3.17,3.32,0,6.42.6,9.29,1.81,2.87,1.21,5.38,2.81,7.52,4.8,2.14,2,3.73,4.23,4.76,6.71Z"/>
    <path class="cls-1" d="m69.9,540.28c-3.87,0-7.15-1.01-9.84-3.04-2.69-2.02-4.75-4.82-6.17-8.39-1.42-3.57-2.13-7.65-2.13-12.24s.83-8.64,2.49-12.33c1.66-3.69,3.97-6.62,6.94-8.79,2.96-2.18,6.44-3.26,10.43-3.26,5.2,0,9.52,1.1,12.96,3.31,3.45,2.21,6.01,5.06,7.71,8.57,1.69,3.51,2.54,7.22,2.54,11.15v.72c.42,4.05.91,7.72,1.45,11.02.54,3.29,1.09,6.03,1.63,8.21.06.18.09.42.09.72,0,1.81-.94,2.87-2.81,3.17l-5.17.63c-1.69.18-2.75-.51-3.17-2.08-.24-.97-.45-1.96-.63-2.99-2.06,1.75-4.44,3.13-7.16,4.12-2.72,1-5.77,1.5-9.16,1.5Zm0-5.44c2.96,0,5.41-.98,7.34-2.95,1.93-1.96,3.4-4.46,4.4-7.48,1-3.02,1.5-6.13,1.5-9.34v-.36c-.06-.3-.09-.63-.09-1v-.82c-.18-2.66-.73-5.15-1.63-7.48-.91-2.33-2.18-4.2-3.81-5.62-1.63-1.42-3.63-2.13-5.98-2.13-1.27,0-2.54.92-3.81,2.77-1.27,1.84-2.33,4.22-3.17,7.12-.85,2.9-1.27,5.92-1.27,9.07s.33,6.11,1,8.88c.66,2.78,1.51,5.03,2.54,6.75,1.03,1.72,2.02,2.58,2.99,2.58Z"/>
    <path class="cls-1" d="m169.9,536.11c0,.97-.3,1.75-.91,2.36-.61.6-1.33.91-2.18.91h-5.44c-.85,0-1.57-.32-2.18-.95-.6-.63-.91-1.43-.91-2.4,0-7.07-.05-12.95-.14-17.63-.09-4.68-.26-8.42-.5-11.2-.24-2.78-.59-4.85-1.04-6.21-.45-1.36-1.09-2.25-1.9-2.67-.82-.42-1.83-.63-3.04-.63-2.24,0-4.08.8-5.53,2.4-1.45,1.6-2.18,4.19-2.18,7.75v28.47c0,1.51-.73,2.48-2.18,2.9-.06.06-.12.09-.18.09-.12,0-.21.02-.27.05-.06.03-.06.04,0,.04h-5.35c-.12,0-.24-.03-.36-.09h-.09c-1.51-.36-2.27-1.36-2.27-2.99v-.27c0-7.07-.08-12.95-.23-17.63-.15-4.68-.39-8.42-.73-11.2-.33-2.78-.77-4.85-1.31-6.21-.54-1.36-1.25-2.25-2.13-2.67-.88-.42-1.92-.63-3.13-.63-2.24,0-3.93.8-5.08,2.4-1.15,1.6-1.72,4.19-1.72,7.75v28.47c0,.85-.3,1.57-.91,2.18-.6.6-1.33.91-2.18.91h-5.44c-.85,0-1.57-.3-2.18-.91-.6-.6-.91-1.33-.91-2.18v-40.98c0-.85.3-1.57.91-2.18.6-.6,1.33-.91,2.18-.91h5.44c.97,0,1.75.36,2.36,1.09,2.3-.73,4.81-1.09,7.52-1.09,3.2,0,5.86.27,7.98.82,2.12.54,3.84,1.54,5.17,2.99,3.32-2.54,7.58-3.81,12.78-3.81,3.63,0,6.57.38,8.84,1.13s4.05,2.05,5.35,3.9c1.3,1.84,2.22,4.43,2.77,7.75.54,3.32.89,7.52,1.04,12.6.15,5.08.23,11.24.23,18.5Z"/>
    <path class="cls-1" d="m192.74,554.42c0,.85-.3,1.57-.91,2.18-.61.6-1.33.91-2.18.91h-4.08c-.85,0-1.57-.3-2.18-.91s-.91-1.33-.91-2.18v-58.2c0-.85.3-1.57.91-2.18s1.33-.91,2.18-.91h4.08c1.57,0,2.57.76,2.99,2.27,2.96-2.11,7.04-3.17,12.24-3.17,4.29,0,8.11,1.07,11.47,3.22,3.35,2.15,6,5,7.93,8.57,1.93,3.57,2.9,7.5,2.9,11.79s-.91,8.22-2.72,11.79c-1.81,3.57-4.34,6.42-7.57,8.57-3.23,2.15-7.03,3.22-11.38,3.22-2.6,0-4.97-.38-7.12-1.13-2.15-.76-4.03-1.83-5.67-3.22v19.4Zm12.51-20.58c2.9,0,5.24-.86,7.03-2.58,1.78-1.72,3.08-3.97,3.9-6.75.82-2.78,1.22-5.68,1.22-8.7s-.54-5.92-1.63-8.7c-1.09-2.78-2.58-5.05-4.49-6.8-1.9-1.75-4.03-2.63-6.39-2.63-3.39,0-6.24,1.6-8.57,4.81-2.33,3.2-3.49,7.8-3.49,13.78,0,3.32.69,6.32,2.08,8.98,1.39,2.66,3.05,4.76,4.99,6.3,1.93,1.54,3.72,2.31,5.35,2.31Z"/>
    <path class="cls-1" d="m252.03,540.28c-3.87,0-7.15-1.01-9.84-3.04-2.69-2.02-4.75-4.82-6.16-8.39-1.42-3.57-2.13-7.65-2.13-12.24s.83-8.64,2.49-12.33c1.66-3.69,3.97-6.62,6.94-8.79,2.96-2.18,6.44-3.26,10.43-3.26,5.2,0,9.52,1.1,12.96,3.31,3.44,2.21,6.01,5.06,7.71,8.57,1.69,3.51,2.54,7.22,2.54,11.15v.72c.42,4.05.91,7.72,1.45,11.02.54,3.29,1.09,6.03,1.63,8.21.06.18.09.42.09.72,0,1.81-.94,2.87-2.81,3.17l-5.17.63c-1.69.18-2.75-.51-3.17-2.08-.24-.97-.45-1.96-.63-2.99-2.06,1.75-4.44,3.13-7.16,4.12-2.72,1-5.77,1.5-9.16,1.5Zm0-5.44c2.96,0,5.41-.98,7.34-2.95,1.93-1.96,3.4-4.46,4.4-7.48,1-3.02,1.5-6.13,1.5-9.34v-.36c-.06-.3-.09-.63-.09-1v-.82c-.18-2.66-.72-5.15-1.63-7.48-.91-2.33-2.18-4.2-3.81-5.62-1.63-1.42-3.63-2.13-5.98-2.13-1.27,0-2.54.92-3.81,2.77-1.27,1.84-2.33,4.22-3.17,7.12-.85,2.9-1.27,5.92-1.27,9.07s.33,6.11,1,8.88c.66,2.78,1.51,5.03,2.54,6.75,1.03,1.72,2.02,2.58,2.99,2.58Z"/>
    <path class="cls-1" d="m331.63,536.11c0,.97-.3,1.75-.91,2.36s-1.33.91-2.18.91h-5.08c-.85,0-1.57-.32-2.18-.95-.6-.63-.91-1.43-.91-2.4v-10.38c0-2.45-.02-4.32-.04-5.62-.03-1.3-.05-2.4-.05-3.31,0-6.04-.65-10.73-1.95-14.05-1.3-3.32-3.43-4.99-6.39-4.99-3.75,0-6.5.8-8.25,2.4-1.75,1.6-2.63,4.19-2.63,7.75v28.47c0,.85-.3,1.57-.91,2.18-.61.6-1.33.91-2.18.91h-5.44c-.85,0-1.57-.3-2.18-.91-.6-.6-.91-1.33-.91-2.18v-40.98c0-.85.3-1.57.91-2.18.6-.6,1.33-.91,2.18-.91h5.44c1.33,0,2.27.58,2.81,1.72,3.32-1.15,7.04-1.72,11.15-1.72s7.71.67,10.25,1.99c2.54,1.33,4.47,3.16,5.8,5.49,1.33,2.33,2.24,4.97,2.72,7.93.48,2.96.76,6.07.82,9.34.06.91.09,2.01.09,3.31v15.82Z"/>
    <path class="cls-1" d="m380.77,533.3c-1.87,1.87-4.25,3.51-7.12,4.9-2.87,1.39-6,2.08-9.38,2.08-7.5,0-13.31-2.16-17.45-6.48-4.14-4.32-6.21-10.14-6.21-17.45,0-4.59.95-8.7,2.86-12.33,1.9-3.63,4.53-6.5,7.89-8.61,3.35-2.11,7.24-3.17,11.65-3.17s8.51.97,11.92,2.9c3.41,1.93,6.09,4.59,8.02,7.98,1.93,3.39,2.9,7.28,2.9,11.7,0,.85-.29,1.54-.86,2.09-.58.54-1.29.82-2.13.82h-32.46c.24,5.38,1.66,9.58,4.26,12.6,2.6,3.02,5.8,4.53,9.61,4.53,1.93,0,3.48-.51,4.62-1.54,1.15-1.03,2.3-2.48,3.45-4.35.66-1.33,1.69-1.84,3.08-1.54l3.35.82c1.87.48,2.81,1.54,2.81,3.17,0,.73-.27,1.36-.82,1.9Zm-17.77-35.63c-1.75,0-3.48.65-5.17,1.95-1.69,1.3-3.17,3.04-4.44,5.21s-2.15,4.66-2.63,7.43h23.39c-.36-4.29-1.54-7.8-3.54-10.52s-4.53-4.08-7.62-4.08Z"/>
    <path class="cls-1" d="m398.45,473.55c0-.85.41-1.57,1.22-2.18.82-.6,1.8-.91,2.95-.91h2.99c1.15,0,2.12.3,2.9.91.79.6,1.18,1.33,1.18,2.18v63.64c0,.85-.39,1.57-1.18,2.18-.79.6-1.75.91-2.9.91h-2.99c-1.15,0-2.13-.3-2.95-.91-.82-.6-1.22-1.33-1.22-2.18v-63.64Z"/>
    <path class="cls-1" d="m427.73,473.55c0-.85.41-1.57,1.22-2.18.82-.6,1.8-.91,2.95-.91h2.99c1.15,0,2.12.3,2.9.91.79.6,1.18,1.33,1.18,2.18v63.64c0,.85-.39,1.57-1.18,2.18-.79.6-1.75.91-2.9.91h-2.99c-1.15,0-2.13-.3-2.95-.91-.82-.6-1.22-1.33-1.22-2.18v-63.64Z"/>
    <path class="cls-1" d="m469.25,540.28c-3.87,0-7.15-1.01-9.84-3.04-2.69-2.02-4.75-4.82-6.16-8.39-1.42-3.57-2.13-7.65-2.13-12.24s.83-8.64,2.49-12.33c1.66-3.69,3.97-6.62,6.94-8.79,2.96-2.18,6.44-3.26,10.43-3.26,5.2,0,9.52,1.1,12.96,3.31,3.44,2.21,6.01,5.06,7.71,8.57,1.69,3.51,2.54,7.22,2.54,11.15v.72c.42,4.05.91,7.72,1.45,11.02.54,3.29,1.09,6.03,1.63,8.21.06.18.09.42.09.72,0,1.81-.94,2.87-2.81,3.17l-5.17.63c-1.69.18-2.75-.51-3.17-2.08-.24-.97-.45-1.96-.63-2.99-2.06,1.75-4.44,3.13-7.16,4.12-2.72,1-5.77,1.5-9.16,1.5Zm0-5.44c2.96,0,5.41-.98,7.34-2.95,1.93-1.96,3.4-4.46,4.4-7.48,1-3.02,1.5-6.13,1.5-9.34v-.36c-.06-.3-.09-.63-.09-1v-.82c-.18-2.66-.72-5.15-1.63-7.48-.91-2.33-2.18-4.2-3.81-5.62-1.63-1.42-3.63-2.13-5.98-2.13-1.27,0-2.54.92-3.81,2.77-1.27,1.84-2.33,4.22-3.17,7.12-.85,2.9-1.27,5.92-1.27,9.07s.33,6.11,1,8.88c.66,2.78,1.51,5.03,2.54,6.75,1.03,1.72,2.02,2.58,2.99,2.58Z"/>
  </g>
  <path class="cls-1" d="m265.08,142.09c.63-2.05,1.37-4.07,2.15-6.07.46-1.18.93-2.34,1.41-3.51.13-.31.26-.62.38-.92.42-1-.39.91-.02.04.29-.68.58-1.36.87-2.03,2.51-5.8,5.13-11.55,7.72-17.31,6.15-13.68,12.22-27.45,17.01-41.68,2.23-6.61,4.18-13.34,5.5-20.2,1.19-6.22,2.01-12.65,1.56-18.99-.4-5.66-1.68-11.4-4.75-16.26-3.28-5.19-8.11-8.75-13.77-10.99-3.33-1.32-6.94-2.06-10.45-2.72-3.31-.63-6.67-1.09-10.03-1.32-6.68-.44-13.51.22-19.95,2.08-7.73,2.23-14.92,6.12-21.31,10.99-8.96,6.83-16.46,15.18-23.22,24.17-9.07,12.07-16.63,25.26-23.43,38.72-9.65,19.1-17.84,38.94-25.32,58.98-2.19,5.87-4.31,11.77-6.38,17.69-.78,2.22.88,5.02,3.14,5.54,2.51.57,4.7-.76,5.54-3.14,4.04-11.54,8.28-23.02,12.83-34.37.99-2.48,2-4.96,3.03-7.43.26-.63.53-1.27.79-1.9.11-.25.21-.5.32-.75.52-1.25-.35.81.18-.42s1.05-2.46,1.58-3.69c1.97-4.56,3.99-9.09,6.09-13.59,6.87-14.75,14.46-29.24,23.53-42.76,1.8-2.69,3.67-5.34,5.61-7.93.45-.6.9-1.19,1.35-1.78.36-.47-.73.94-.21.27.09-.12.19-.24.28-.36.26-.33.52-.66.78-.99.9-1.13,1.81-2.25,2.74-3.35,3.36-3.98,6.94-7.78,10.81-11.28.86-.78,1.74-1.54,2.63-2.28.42-.35.84-.7,1.27-1.04.2-.16.4-.32.6-.48.13-.1.27-.21.4-.31.54-.42-.96.73-.38.29,1.68-1.25,3.37-2.47,5.13-3.6,1.64-1.04,3.32-2.02,5.04-2.91.84-.43,1.69-.85,2.55-1.24.38-.17.76-.34,1.14-.51.86-.38-1.19.48-.32.13.21-.08.42-.17.63-.26,3.15-1.26,6.41-2.22,9.75-2.85.76-.14,1.52-.26,2.29-.38,1-.15-.84.1-.48.06.2-.02.4-.05.6-.07.4-.05.79-.09,1.19-.13,1.52-.14,3.05-.22,4.58-.24,3-.03,5.98.2,8.96.57-1.71-.21-.65-.09-.02,0,.37.05.74.11,1.11.17.74.12,1.47.25,2.2.39,1.42.27,2.83.57,4.23.9,2.04.48,4.07.99,6.02,1.75.13.05.26.11.39.16.78.29-1.06-.49-.31-.13.28.13.56.25.83.38.63.3,1.24.63,1.84.98.5.29.98.6,1.45.93.25.17.5.4.76.55.02.01-.96-.78-.47-.36.14.12.29.23.43.35.93.78,1.79,1.63,2.57,2.55.15.17.77.96.21.24s.05.08.18.26c.36.51.7,1.03,1.02,1.57.29.49.56.99.82,1.5.12.24.23.49.35.74.52,1.09-.37-.97.01.02.44,1.14.82,2.28,1.13,3.46s.54,2.47.74,3.73c.13.79-.13-1.07-.07-.5.02.17.04.33.06.5.03.3.06.61.09.91.06.72.11,1.45.14,2.18.12,2.87-.01,5.75-.3,8.61-.07.7-.16,1.39-.24,2.09-.11.91.17-1.16.03-.26-.02.16-.04.32-.07.47-.06.44-.13.87-.2,1.31-.25,1.58-.55,3.16-.88,4.73-.69,3.3-1.52,6.57-2.44,9.81-2,6.99-4.43,13.85-7.06,20.63-1.33,3.41-2.71,6.81-4.12,10.18-.07.17-.14.34-.22.52-.39.93.41-.97.02-.04-.15.34-.29.69-.44,1.03-.38.9-.77,1.79-1.15,2.69-.71,1.64-1.43,3.28-2.15,4.92-5.06,11.48-10.58,22.81-15.11,34.51-.73,1.89-1.42,3.8-2.02,5.74-.69,2.25.82,5.01,3.14,5.54s4.8-.73,5.54-3.14h0Z"/>
  <path class="cls-1" d="m303.32,38.64c.71-3.03,1.55-6.03,2.64-8.94.15-.4.3-.8.46-1.19.08-.19.19-.4.24-.59,0,.01-.49,1.11-.2.48.35-.79.7-1.58,1.09-2.36.75-1.51,1.58-2.97,2.51-4.38.45-.68.98-1.31,1.42-2-.82,1.3,0,0,.28-.32.29-.35.59-.69.89-1.02.56-.62,1.15-1.22,1.76-1.79.41-.38,1.54-1.75,2.12-1.82-.48.06-.8.59-.16.13.19-.14.39-.28.58-.42.33-.23.66-.45,1-.67.83-.53,1.69-1.02,2.57-1.47.45-.23.92-.44,1.38-.66.14-.06.33-.18.47-.21-1.17.25-.48.19-.11.05,1.01-.38,2.03-.74,3.07-1.04s2.02-.54,3.05-.74c.59-.12,1.17-.22,1.76-.31.13-.02.51-.12.6-.09-.69.09-.78.1-.28.04.21-.02.42-.05.62-.07,2.58-.27,5.18-.32,7.77-.21,1.38.06,2.75.17,4.12.31.39.04.78.09,1.17.14.88.1.17.02,0,0,.96.13,1.91.29,2.87.45,3.12.55,6.24,1.24,9.28,2.12,1.13.33,2.24.72,3.34,1.15.93.36-1.13-.51-.23-.1.28.13.56.25.84.38.56.26,1.1.54,1.64.83,1.04.57,2.05,1.19,3.03,1.86.47.33.92.69,1.39,1.01-1.35-.91-.5-.39-.17-.12.29.23.57.47.85.71.94.81,1.83,1.67,2.68,2.57.42.44.82.89,1.22,1.36.18.21.36.43.54.64.16.19.97,1.23.39.47s.14.18.27.36c.21.28.41.56.61.84.39.55.76,1.12,1.12,1.69.73,1.15,1.41,2.34,2.05,3.55.68,1.3,1.25,2.65,1.88,3.98-.72-1.52-.08-.17.07.21.12.31.25.62.36.94.29.77.57,1.54.83,2.31,1.08,3.19,1.92,6.46,2.57,9.76.36,1.8.64,3.6.91,5.41.14.92-.14-1.15-.03-.22.03.25.06.49.09.74.05.42.1.83.15,1.25.11,1.02.21,2.04.3,3.06.35,4.2.48,8.42.43,12.63-.05,4.69-.32,9.39-.75,14.06-.23,2.53-.52,5.05-.84,7.57-.03.22-.19,1.38-.02.16-.03.23-.06.45-.09.68-.1.69-.19,1.37-.29,2.06-.21,1.4-.43,2.79-.66,4.19-4.34,26.18-12.53,51.66-22.21,76.31-1.44,3.67-2.92,7.31-4.43,10.95-.76,1.82.51,4.15,2.07,5.08,1.02.61,2.03,1.25,3.02,1.92.48.33.95.66,1.41,1,.16.12,1.08.82.17.12.26.21.53.41.79.63,1.75,1.42,3.39,2.96,4.91,4.62.59.64,1.66,1.52,1.98,2.33-.26-.65-.4-.53-.15-.2.18.24.36.48.53.72.35.48.68.97,1.01,1.46,1.06,1.61,2.01,3.29,2.83,5.03.2.43.39.86.59,1.29.41.93-.38-.98-.02-.03.07.18.14.35.21.52.37.96.71,1.93,1.02,2.91.58,1.86,1.03,3.76,1.38,5.68.08.45.16.91.23,1.37.2,1.28-.09-.85.06.45.12,1.01.21,2.02.28,3.03.12,1.84.16,3.68.11,5.52s-.17,3.84-.37,5.75c-.05.45-.1.9-.15,1.36-.03.27-.08.54-.1.81,0-.07.16-1.15.05-.39-.15.98-.3,1.96-.47,2.93-.63,3.55-1.48,7.07-2.49,10.53-.92,3.14-1.98,6.25-3.16,9.31-.26.67-.52,1.34-.79,2-.13.32-.26.64-.39.96-.05.13-.11.25-.16.38-.29.71.51-1.18.06-.15-.5,1.16-1.01,2.31-1.54,3.46-1.22,2.63-2.49,5.27-3.97,7.77-1.2,2.03-.53,5.02,1.61,6.16s4.88.55,6.16-1.61c4.41-7.47,7.74-15.81,10.31-24.07,4.69-15.05,6.8-32.34.68-47.31-4.19-10.25-11.63-18.35-21.11-24.02l2.07,5.08c10.89-26.18,20.25-53.25,25.56-81.16,3.65-19.2,5.59-39.07,2.59-58.5-1.95-12.63-6.5-25.65-15.72-34.86-3.97-3.96-8.69-6.95-13.92-8.93-4.7-1.78-9.81-2.74-14.77-3.44-6.09-.86-12.1-1.09-18.2-.21-8.52,1.22-16.64,5.2-22.38,11.69-4.94,5.59-8.12,12.42-10.2,19.55-.42,1.46-.8,2.93-1.14,4.4-.53,2.29.71,4.98,3.14,5.54,2.3.52,4.96-.69,5.54-3.14h0Z"/>
  <path class="cls-1" d="m344.24,308.63c0,.45-.1.92-.09,1.37-.03-1.37.11-.77,0-.26-.05.24-.11.48-.17.72-.11.4-.3.79-.41,1.2.33-1.3.31-.71.09-.27-.11.21-.22.42-.34.62-.21.35-.48.67-.68,1.02.65-1.16.52-.64.21-.3-.18.19-.35.39-.53.58-.29.29-.6.55-.9.83-.5.46.97-.69.28-.22-.22.15-.43.31-.66.45-.35.23-.71.43-1.08.63-.19.1-.38.19-.57.28-.11.05-.22.1-.33.15-.4.2,1.19-.44.49-.21-.86.28-1.69.58-2.57.76-.21.05-.43.08-.65.12-1.02.2.85-.07.26-.03-.48.03-.95.09-1.43.1s-.96.01-1.45-.01c-.23-.01-.45-.03-.68-.05-.24-.02-1.18-.14-.27-.02s.03,0-.18-.04c-.23-.04-.45-.09-.67-.14-.51-.11-1.02-.25-1.53-.41-.44-.14-.87-.32-1.31-.47-.21-.07,1.06.5.25.09-.27-.14-.54-.27-.81-.41-.42-.23-.83-.47-1.23-.73-.2-.13-.4-.27-.59-.41-.87-.6.54.47.09.07-.81-.72-1.56-1.44-2.27-2.26s.36.56.03.04c-.14-.22-.3-.43-.45-.65-.32-.48-.61-.98-.88-1.49-.15-.28-.28-.57-.42-.86-.05-.11-.09-.22-.15-.33-.25-.5.34.93.17.39-.19-.61-.44-1.19-.62-1.8s-.33-1.21-.45-1.82c-.08-.36-.13-.73-.2-1.1-.03-.16-.03-.62,0,.03.04.77,0-.09-.03-.27-.16-1.52-.22-3.07-.13-4.6.02-.27.06-.54.07-.81.03-.56-.2,1.05-.06.5.03-.11.04-.24.06-.35.14-.64.28-1.27.48-1.89.09-.28.18-.56.28-.83.04-.12.09-.24.13-.36.23-.69-.12.3-.16.36.35-.6.59-1.28.93-1.9.31-.56.63-1.11.98-1.65.12-.19,1.35-1.73,1.29-1.85.01.02-.58.7-.26.34.1-.11.18-.23.27-.34.25-.3.5-.6.75-.89.49-.55.99-1.09,1.52-1.61s1.08-1.04,1.64-1.54c.27-.23.53-.46.81-.69.19-.16,1.14-.84.62-.5-.57.38.38-.27.52-.37.33-.24.67-.47,1.01-.69.64-.42,1.29-.82,1.95-1.2.62-.35,1.25-.69,1.89-1,.32-.16.64-.3.96-.45.73-.35-.17.04-.24.09.19-.14.49-.2.7-.28,1.4-.54,2.83-.97,4.3-1.28.34-.07.68-.14,1.02-.19.13-.02.5-.03.58-.09-.02.01-.95.08-.47.07.73-.01,1.46-.13,2.19-.13s1.45.04,2.18.09c1.05.08-.7-.15.1,0,.38.07.77.14,1.15.22.72.16,1.43.37,2.12.62.14.05.28.11.42.15.81.29-.22-.12-.24-.11.22-.05.87.41,1.1.53.64.34,1.27.71,1.87,1.12.22.15,1.26,1.02.39.25.33.29.68.57,1.01.86,1.61,1.46,3.01,3.16,4.37,4.86.04.05.52.67.17.21.14.19.28.37.42.56.32.43.63.86.93,1.3.67.96,1.3,1.94,1.91,2.95,1.04,1.74,1.97,3.54,2.8,5.39.03.07.27.66.07.16-.22-.53.08.21.13.34.16.4.31.8.46,1.21.32.89.61,1.8.88,2.71.44,1.54.79,3.12,1.05,4.7.03.21.06.42.1.62.09.52-.07-.44-.06-.42.14.16.11,1,.13,1.21.07.73.11,1.47.14,2.2.05,1.37.03,2.74-.07,4.1-.04.59-.1,1.17-.16,1.76-.11,1.07.14-.88.02-.12-.06.34-.1.69-.16,1.03-.33,1.9-.8,3.77-1.42,5.59-.21.61-.46,1.21-.69,1.82.67-1.83.13-.31-.11.18-.06.13-.13.27-.2.4-1.02,1.84-.66,3.92.7,5.45.15.16.29.34.43.51.07.09.14.18.22.27.5.61-.82-1.09-.4-.52.23.31.46.62.69.93,1.34,1.88,2.54,3.86,3.64,5.9.78,1.45,1.49,2.93,2.16,4.43.09.2.17.4.26.6.35.79-.43-1.07-.11-.26.17.42.35.84.51,1.27.38.97.74,1.94,1.08,2.93,1.48,4.31,2.54,8.75,3.22,13.25.04.29.14.63.13.92.01-1.22-.04-.26,0,.05.08.64.15,1.28.21,1.92.14,1.44.25,2.88.31,4.33.13,2.87.12,5.74-.03,8.61-.08,1.54-.2,3.07-.36,4.6-.08.79-.18,1.58-.27,2.37-.16,1.33.15-.93-.06.41-.08.54-.16,1.09-.25,1.63-.58,3.59-1.35,7.15-2.29,10.67-.69,2.59-1.42,5.2-2.39,7.7-.1.25-.21.5-.3.75.58-1.64.18-.43,0-.04-.29.64-.6,1.27-.93,1.89-.64,1.21-1.34,2.38-2.11,3.51-.37.55-.76,1.09-1.16,1.63-.75,1.02.62-.76-.01.02-.25.31-.49.61-.75.92-1.84,2.19-3.89,4.21-6.07,6.05-.56.47-1.13.93-1.7,1.39-.81.65.95-.72-.12.09-.35.26-.7.52-1.06.78-1.24.9-2.52,1.75-3.82,2.57-2.86,1.8-5.83,3.41-8.88,4.87-1.54.74-3.14,1.35-4.67,2.11,1.46-.72.03-.02-.34.13-.41.17-.82.33-1.23.49-.9.36-1.8.7-2.71,1.04-7.37,2.73-14.96,4.84-22.63,6.51-4.08.89-8.19,1.67-12.31,2.33-2.16.35-4.33.67-6.51.97-.97.13,1.12-.15.14-.02-.26.03-.53.07-.79.1-.53.07-1.06.13-1.59.2-1.15.14-2.31.28-3.47.4-18.15,2-36.49,2.35-54.72,1.36-4.65-.25-9.3-.6-13.94-1.04-2.2-.21-4.41-.44-6.61-.69-1.09-.12-2.19-.25-3.28-.39-.54-.07-1.09-.14-1.63-.21-.27-.04-.54-.07-.81-.11-1.29-.17.66.09-.16-.02-8.65-1.19-17.26-2.7-25.78-4.66-7.82-1.8-15.56-3.96-23.12-6.64-1.7-.61-3.4-1.24-5.08-1.9-.82-.32-1.64-.65-2.45-.99-.2-.08-.4-.18-.6-.25,1.36.5.58.25.28.11-.46-.2-.92-.4-1.38-.6-3.08-1.36-6.11-2.83-9.05-4.46-2.76-1.52-5.45-3.18-8.01-5.01-.58-.41-1.15-.84-1.72-1.27-.61-.45.95.74.35.27-.14-.11-.27-.22-.41-.32-.27-.22-.54-.43-.81-.65-1.08-.89-2.13-1.82-3.14-2.79s-1.88-1.89-2.76-2.9c-.41-.47-.79-.95-1.18-1.43-.45-.54.74,1,.33.43-.09-.12-.18-.24-.27-.36-.47-.63-.92-1.27-1.36-1.91-1.48-2.17-2.81-4.43-3.99-6.77-.29-.58-.57-1.15-.84-1.74-.14-.3-1.03-2.12-.44-.97-.61-1.2-1.02-2.58-1.45-3.86-.84-2.48-1.51-5.02-2.04-7.59-.25-1.23-.47-2.46-.65-3.7-.03-.2-.08-.42-.09-.62.03,1.26.04.25,0-.05-.09-.73-.16-1.45-.23-2.18-.46-5.21-.37-10.46.16-15.66.06-.63.13-1.25.21-1.87.04-.31.06-.63.12-.94-.26,1.27-.03.22.01-.05.18-1.24.38-2.48.61-3.72.47-2.57,1.03-5.12,1.68-7.64,1.28-4.96,2.87-9.84,4.74-14.61.38-.96.67-2.19,1.23-3.05-.63.95-.13.32,0-.02.12-.27.23-.54.35-.81.27-.63.55-1.25.83-1.87.98-2.16,2.02-4.29,3.11-6.4,1.96-3.79,4.09-7.49,6.42-11.06,1.05-1.61,2.14-3.2,3.27-4.75.25-.35.51-.69.77-1.04.13-.17.26-.33.38-.5.5-.66-.71.9-.2.26s1.07-1.34,1.62-2c1.69-2.01,3.49-3.86,5.49-5.55.24-.21-1.13.81-.23.19.19-.13.37-.26.56-.39.34-.22.69-.41,1.05-.61.83-.46-.76.26-.51.2.15-.03.31-.1.45-.15.13-.05.3-.04.42-.09-1.04.47-1.38.12-.74.13,1.9.02,3.91-1.4,4.34-3.3.41-1.78-.21-4.28-2.07-5.08-6.12-2.65-12.01-5.86-17.37-9.84-.11-.08-1.08-.81-.56-.41.49.37-.37-.29-.53-.42-.6-.48-1.2-.97-1.78-1.48-1.06-.91-2.09-1.85-3.09-2.83s-1.96-1.99-2.88-3.03c-.44-.49-.86-.99-1.28-1.5-.18-.21-.35-.43-.53-.65-.12-.14-.23-.29-.34-.43-.38-.48.13.09.2.26-.23-.53-.79-1.06-1.13-1.54-.39-.55-.77-1.1-1.13-1.67-.7-1.07-1.36-2.16-1.97-3.28-.58-1.05-1.13-2.13-1.64-3.22-.22-.46-.4-1.24-.73-1.63-.02-.03.38.94.21.49-.06-.16-.13-.31-.19-.47-.12-.31-.25-.63-.36-.94-.83-2.21-1.52-4.48-2.05-6.78-.26-1.12-.48-2.24-.66-3.37-.05-.28-.09-.56-.13-.84-.02-.12-.03-.24-.05-.36-.12-.76.06.47.06.47-.18-.11-.18-1.56-.21-1.81-.44-4.57-.34-9.18.21-13.73.01-.12.03-.24.04-.36.09-.75-.05.47-.07.48.08-.04.11-.76.12-.83.08-.55.17-1.1.27-1.65.2-1.14.42-2.27.68-3.39.49-2.19,1.08-4.36,1.76-6.51s1.44-4.18,2.27-6.24c.06-.14.13-.28.18-.43.03-.08-.42.99-.23.55.11-.24.21-.49.32-.74.23-.52.46-1.04.7-1.56.44-.96.9-1.9,1.38-2.84,1.86-3.64,3.98-7.14,6.39-10.44.28-.38.56-.76.85-1.14.53-.71-.6.76-.15.2.17-.21.33-.42.49-.62.57-.71,1.15-1.4,1.75-2.08,1.17-1.33,2.39-2.61,3.69-3.82.58-.54,1.18-1.08,1.79-1.59.29-.25.6-.48.9-.73.51-.42-.93.7-.4.31.17-.12.34-.25.51-.38,1.16-.85,2.37-1.62,3.65-2.28.26-.14.53-.27.8-.39.14-.07.29-.13.43-.19.57-.27-1.27.52-.47.2,2.18-.87,3.95-3.04,3.14-5.54-.68-2.11-3.2-4.08-5.54-3.14-6.69,2.68-12.14,7.71-16.6,13.27-5.77,7.19-10.2,15.26-13.38,23.91s-5.11,18.81-4.71,28.43c.44,10.49,3.47,20.85,9.25,29.66,7,10.66,17.29,18.72,28.63,24.36,1.63.81,3.29,1.57,4.96,2.3l2.27-8.39c-2.28-.02-4.43,1.11-6.2,2.46-2.38,1.81-4.47,3.88-6.41,6.16-5.33,6.27-9.78,13.3-13.59,20.58-4.78,9.12-8.67,18.8-11.3,28.76s-4.23,21.45-3.38,32.25,4.15,22.33,10.37,31.83c3.78,5.77,8.45,10.43,13.98,14.51s11.15,7.06,17.16,9.76c7.3,3.28,14.84,5.98,22.52,8.21,8.18,2.38,16.5,4.27,24.88,5.8,9.31,1.7,18.71,2.96,28.13,3.87s18.83,1.42,28.27,1.56,18.8-.08,28.18-.72,18.55-1.67,27.74-3.18c8.28-1.36,16.51-3.13,24.56-5.5,7.5-2.21,14.88-4.94,21.9-8.4,6.11-3.01,11.92-6.68,17.06-11.17,4.52-3.94,8.53-8.7,11.22-14.08,2.15-4.29,3.48-8.94,4.64-13.57,1.74-6.94,2.84-14.09,3.14-21.25.44-10.53-.93-21.29-4.45-31.24-2.06-5.81-4.73-11.54-8.37-16.55-.69-.95-1.38-1.9-2.16-2.78l.7,5.45c4.36-7.9,4.85-18.08,3.14-26.73s-6.59-17.24-12.58-24.14c-5.17-5.95-12.26-9.65-20.28-9.13-7.51.48-14.37,3.82-20.11,8.54-4.98,4.08-9.44,9.83-10.94,16.19s-.34,13.79,2.93,19.37c2.79,4.77,7.4,8.32,12.73,9.81,9.42,2.63,21.48-1.42,24.13-11.68.34-1.31.5-2.69.53-4.04.04-2.35-2.1-4.61-4.5-4.5s-4.45,1.98-4.5,4.5h0Z"/>
  <path class="cls-1" d="m163.5,315.56c2.12-.09,4.23-.11,6.35-.04,1.3.04,2.59.12,3.88.23.64.06,1.28.12,1.91.2.19.02,1.27.17.46.05.38.06.76.11,1.14.17,2.73.44,5.34,1.15,7.93,2.09.14.05.53.23-.11-.05.13.06.27.11.4.18.29.14.59.27.87.42.59.3,1.17.63,1.73.99.23.15.45.31.68.46.69.47-.23-.26.27.21.46.43.93.83,1.35,1.31.15.17.62.82.15.15.15.21.3.42.45.64.16.25.31.5.44.76.08.14.14.3.22.44.27.47-.15-.42-.03-.08.19.55.38,1.09.5,1.66.04.17.06.35.1.52.09.41-.05-.58-.02-.15.03.37.06.74.07,1.12.01.68-.03,1.36-.11,2.04.08-.71-.09.44-.13.62-.09.46-.2.91-.33,1.36-.54,1.93-1.26,3.68-2.13,5.44-1.78,3.64-3.79,6.62-6.59,9.35-1.42,1.39-2.14,1.98-3.76,2.98-.7.43-1.43.8-2.16,1.17-.1.05-.53.24-.01.02-.16.07-.32.13-.49.19-.4.15-.81.29-1.22.41s-.81.22-1.23.31c-.16.03-.33.06-.49.1-.69.16.46-.01-.18.03-.82.06-1.62.09-2.44.04-.02,0-.81-.08-.32-.02.45.06-.23-.04-.32-.06-.4-.08-.79-.17-1.18-.28s-.78-.25-1.17-.4c.6.23-.47-.23-.65-.33-.38-.2-.75-.43-1.11-.66-.19-.12-.37-.25-.55-.38-.17-.12-.15-.1.07.06-.11-.09-.21-.17-.32-.26-.73-.63-1.42-1.3-2.04-2.04-.46-.54-.38-.44-.68-.87-.31-.45-.62-.91-.91-1.38-.66-1.07-1.23-2.19-1.75-3.34-.67-1.47-2.81-1.83-4.1-1.08-1.52.89-1.75,2.62-1.08,4.1,3.29,7.23,9.8,13.68,18.32,12.91,8.38-.75,15.07-6.87,19.41-13.69,4.08-6.43,7.81-15.22,4.15-22.63-2.72-5.51-9.05-8.23-14.71-9.56-6.03-1.41-12.35-1.73-18.52-1.46-1.62.07-3,1.33-3,3,0,1.57,1.37,3.07,3,3h0Z"/>
  <g>
    <path class="cls-1" d="m186.82,226.9c0,.23-.02.46-.05.68l.16-1.2c-.07.44-.18.86-.36,1.28l.45-1.07c-.18.4-.4.77-.66,1.11l.7-.91c-.25.3-.52.57-.82.82l.91-.7c-.35.27-.71.49-1.11.66l1.07-.45c-.41.17-.83.29-1.28.36l1.2-.16c-.46.06-.91.06-1.37,0l1.2.16c-.44-.07-.86-.18-1.28-.36l1.07.45c-.4-.18-.77-.4-1.11-.66l.91.7c-.3-.25-.57-.52-.82-.82l.7.91c-.27-.35-.49-.71-.66-1.11l.45,1.07c-.17-.41-.29-.83-.36-1.28l.16,1.2c-.06-.46-.06-.91,0-1.37l-.16,1.2c.07-.44.18-.86.36-1.28l-.45,1.07c.18-.4.4-.77.66-1.11l-.7.91c.25-.3.52-.57.82-.82l-.91.7c.35-.27.71-.49,1.11-.66l-1.07.45c.41-.17.83-.29,1.28-.36l-1.2.16c.46-.06.91-.06,1.37,0l-1.2-.16c.44.07.86.18,1.28.36l-1.07-.45c.4.18.77.4,1.11.66l-.91-.7c.3.25.57.52.82.82l-.7-.91c.27.35.49.71.66,1.11l-.45-1.07c.17.41.29.83.36,1.28l-.16-1.2c.03.23.04.45.05.68.02,1.16.49,2.35,1.32,3.18.78.78,2.06,1.37,3.18,1.32s2.37-.43,3.18-1.32,1.33-1.97,1.32-3.18c-.02-1.79-.51-3.71-1.56-5.19-.79-1.1-1.48-1.78-2.55-2.59-.71-.54-1.53-.88-2.37-1.19s-1.85-.45-2.77-.48-1.87.09-2.74.34c-1.68.47-3.37,1.46-4.5,2.81-.86,1.04-1.36,1.9-1.86,3.15-.35.85-.45,1.76-.54,2.67s.06,1.93.27,2.82.57,1.72,1.02,2.47c.89,1.49,2.26,2.87,3.85,3.6,1.26.58,2.23.83,3.61,1,.93.11,1.85-.03,2.76-.19s1.91-.58,2.73-1.07,1.58-1.08,2.18-1.79c1.54-1.82,2.43-3.95,2.47-6.35.02-1.14-.51-2.38-1.32-3.18s-2.06-1.37-3.18-1.32c-2.47.11-4.47,1.98-4.5,4.5Z"/>
    <circle class="cls-1" cx="186.37" cy="226.9" r="4.96"/>
  </g>
  <g>
    <path class="cls-1" d="m294.48,225.48c0,.23-.02.46-.05.68l.16-1.2c-.07.44-.18.86-.36,1.28l.45-1.07c-.18.4-.4.77-.66,1.11l.7-.91c-.25.3-.52.57-.82.82l.91-.7c-.35.27-.71.49-1.11.66l1.07-.45c-.41.17-.83.29-1.28.36l1.2-.16c-.46.06-.91.06-1.37,0l1.2.16c-.44-.07-.86-.18-1.28-.36l1.07.45c-.4-.18-.77-.4-1.11-.66l.91.7c-.3-.25-.57-.52-.82-.82l.7.91c-.27-.35-.49-.71-.66-1.11l.45,1.07c-.17-.41-.29-.83-.36-1.28l.16,1.2c-.06-.46-.06-.91,0-1.37l-.16,1.2c.07-.44.18-.86.36-1.28l-.45,1.07c.18-.4.4-.77.66-1.11l-.7.91c.25-.3.52-.57.82-.82l-.91.7c.35-.27.71-.49,1.11-.66l-1.07.45c.41-.17.83-.29,1.28-.36l-1.2.16c.46-.06.91-.06,1.37,0l-1.2-.16c.44.07.86.18,1.28.36l-1.07-.45c.4.18.77.4,1.11.66l-.91-.7c.3.25.57.52.82.82l-.7-.91c.27.35.49.71.66,1.11l-.45-1.07c.17.41.29.83.36,1.28l-.16-1.2c.03.23.04.45.05.68.02,1.16.49,2.35,1.32,3.18.78.78,2.06,1.37,3.18,1.32s2.37-.43,3.18-1.32,1.33-1.97,1.32-3.18c-.02-1.79-.51-3.71-1.56-5.19-.79-1.1-1.48-1.78-2.55-2.59-.71-.54-1.53-.88-2.37-1.19s-1.85-.45-2.77-.48-1.87.09-2.74.34c-1.68.47-3.37,1.46-4.5,2.81-.86,1.04-1.36,1.9-1.86,3.15-.35.85-.45,1.76-.54,2.67s.06,1.93.27,2.82.57,1.72,1.02,2.47c.89,1.49,2.26,2.87,3.85,3.6,1.26.58,2.23.83,3.61,1,.93.11,1.85-.03,2.76-.19s1.91-.58,2.73-1.07,1.58-1.08,2.18-1.79c1.54-1.82,2.43-3.95,2.47-6.35.02-1.14-.51-2.38-1.32-3.18s-2.06-1.37-3.18-1.32c-2.47.11-4.47,1.98-4.5,4.5Z"/>
    <circle class="cls-1" cx="294.37" cy="225.9" r="4.96"/>
  </g>
  <path class="cls-1" d="m242.49,186.06c-2.44-1.04-4.44-2.62-5.54-5.03-.96-2.11-.74-4.23.45-6.11.51-.81,1.26-1.52,2.17-1.98.45-.23-.01-.05.51-.2.08-.02.91-.21.53-.16.68-.09.97-.03,1.42.09.95.25,1.82.79,2.53,1.72.09.12.46.85.51,1.04.15.5.16.87.12,1.07-.59,3.37,3.48,5.16,5.48,2.31.99-1.41,2.02-2.76,3.22-3.99,1.05-1.08,2.35-2.15,3.6-2.58.82-.28,1.26-.35,2.01-.32.18,0,.38.01.56.04-.17-.02-.49-.13.01.03.17.06,1.07.37.54.13.28.13.54.28.81.44.11.07.22.14.33.22-.11-.08-.38-.36.01.02.22.22.45.43.66.66.09.1.18.2.26.3-.27-.33-.02-.02.09.16.17.27.34.54.49.83.07.12.13.25.19.37.22.43-.14-.39.03.06.27.67.42,1.35.59,2.05.02.1.09.59.02.05.02.14.03.29.04.43.02.34.04.67.04,1.01s-.03.67-.05,1.01c-.04.49.09-.43,0,.06-.04.19-.07.37-.11.56-.08.33-.17.64-.27.96-.17.54-.06.21,0,.08-.05.13-.12.26-.18.39-.33.63-.73,1.25-1.09,1.66-1.15,1.33-2.22,2.1-3.77,2.91-3.21,1.65-7.02,2.08-10.73,1.95s-3.86,5.86,0,6c8.37.29,19.22-2.81,21.74-11.93,2.15-7.78-3.17-17.59-12.09-16.28-5.45.8-9.15,5.5-12.12,9.72l5.48,2.31c.78-4.5-1.65-8.79-5.83-10.64s-8.77-.65-11.67,2.73-3.89,7.68-2.56,11.8,4.57,7.55,8.54,9.24c1.49.64,3.22.44,4.1-1.08.74-1.26.42-3.46-1.08-4.1h0Z"/>
  <path class="cls-1" d="m258.73,393.17c-10.86-17.83-9.9-39.95-15.47-59.7-.36-1.26-.74-2.52-1.15-3.76-.01-.04-.04-.11-.06-.2-.09-.28-.2-.55-.3-.83-.22-.61-.46-1.22-.7-1.82-.96-2.4-2.05-4.75-3.32-7.01-.63-1.12-1.3-2.22-2.02-3.29-.2-.29-.39-.58-.6-.87-.01-.02-.12-.16-.22-.31-.12-.16-.29-.38-.3-.4-.22-.28-.43-.55-.66-.83-1.6-1.96-3.39-3.78-5.34-5.43-.51-.43-1.03-.85-1.56-1.26-.03-.02-.33-.25-.47-.35-.09-.06-.16-.12-.18-.13-1-.71-2.03-1.39-3.09-2.03-2.12-1.3-4.33-2.48-6.59-3.58-3.29-1.6-6.68-3.01-10.11-4.38-1.78-.71-3.73-.11-4.68,1.5-10.5,17.86-9.83,45.49,3.61,70.95,14.46,27.39,39.34,43.98,61.23,43.04,3.62-.16,4.91-4.95,1.98-7.44-3.97-3.39-7.3-7.45-10.01-11.9Z"/>
  <path class="cls-1" d="m215.38,283.4c-.81.43-1.6.88-2.36,1.36-1.73,1.09-1.4,3.86.58,4.69,8.53,3.55,16.77,7.67,23.23,13.92,16,15.5,16.98,38.89,20.92,59.68.48,2.53,1.01,5.05,1.64,7.54.33,1.33.69,2.65,1.08,3.97.17.57.35,1.14.53,1.71.11.34.22.68.34,1.02.21.64.09.28,0,.02,1.24,4.17,3.44,8.21,5.79,11.83.33.5.66,1,1.01,1.49.07.1.18.22.28.34-.07-.18.01-.22.13.05.1.24.23.47.39.68.52.66,1.06,1.31,1.62,1.95,1.45,1.64,3.02,3.17,4.73,4.57.23.19.47.38.7.56,0,0,0,0,.01,0,.18,0,1.03.74,1.21.85.92.61,1.87,1.19,2.85,1.71.98.53,1.99,1.02,3.03,1.45.06.03.21.1.36.18.03,0,.1.02.23.06.6.2,1.19.4,1.79.59,0,0,0,0,.01,0,.81.25,1.66.16,2.28-.37,18.55-15.91,21.1-50.07,4.75-81.03-18.14-34.36-52.67-51.75-77.13-38.83Z"/>
</svg>